<svg xmlns="http://www.w3.org/2000/svg" xmlns:xlink="http://www.w3.org/1999/xlink" width="6912" zoomAndPan="magnify" viewBox="0 0 5184 2592.000001" height="3456" preserveAspectRatio="xMidYMid meet" version="1.0"><defs><filter x="0%" y="0%" width="100%" height="100%" id="41639df303"><feColorMatrix values="0 0 0 0 1 0 0 0 0 1 0 0 0 0 1 0 0 0 1 0" color-interpolation-filters="sRGB"/></filter><mask id="80d1d8762f"><g filter="url(#41639df303)"><rect x="-518.4" width="6220.8" fill="#000000" y="-259.2" height="3110.400001" fill-opacity="0.4471"/></g></mask><clipPath id="89d920b6df"><path d="M 0 11 L 1033 11 L 1033 1175 L 0 1175 Z M 0 11 " clip-rule="nonzero"/></clipPath><clipPath id="b7b09fa8ce"><path d="M 0 50 L 934 50 L 934 1237 L 0 1237 Z M 0 50 " clip-rule="nonzero"/></clipPath><clipPath id="207065af43"><rect x="0" width="1040" y="0" height="1244"/></clipPath><mask id="3efda470c1"><g filter="url(#41639df303)"><rect x="-518.4" width="6220.8" fill="#000000" y="-259.2" height="3110.400001" fill-opacity="0.4471"/></g></mask><clipPath id="b93929381e"><path d="M 27 9 L 754 9 L 754 934 L 27 934 Z M 27 9 " clip-rule="nonzero"/></clipPath><clipPath id="ab496132f3"><path d="M 5 40 L 754 40 L 754 984 L 5 984 Z M 5 40 " clip-rule="nonzero"/></clipPath><clipPath id="3d89e7060f"><rect x="0" width="754" y="0" height="989"/></clipPath><mask id="ccdf7393d9"><g filter="url(#41639df303)"><rect x="-518.4" width="6220.8" fill="#000000" y="-259.2" height="3110.400001" fill-opacity="0.4471"/></g></mask><clipPath id="c3c3955810"><rect x="0" width="989" y="0" height="990"/></clipPath><mask id="cf0d7ce53a"><g filter="url(#41639df303)"><rect x="-518.4" width="6220.8" fill="#000000" y="-259.2" height="3110.400001" fill-opacity="0.4471"/></g></mask><clipPath id="8654515859"><rect x="0" width="990" y="0" height="989"/></clipPath><mask id="210fd7b7b4"><g filter="url(#41639df303)"><rect x="-518.4" width="6220.8" fill="#000000" y="-259.2" height="3110.400001" fill-opacity="0.4471"/></g></mask><clipPath id="0656f6e2b9"><path d="M 27 9 L 984 9 L 984 849 L 27 849 Z M 27 9 " clip-rule="nonzero"/></clipPath><clipPath id="6a883625e8"><path d="M 5 40 L 905 40 L 905 849 L 5 849 Z M 5 40 " clip-rule="nonzero"/></clipPath><clipPath id="b49c30e068"><rect x="0" width="989" y="0" height="849"/></clipPath><mask id="8f2893e45f"><g filter="url(#41639df303)"><rect x="-518.4" width="6220.8" fill="#000000" y="-259.2" height="3110.400001" fill-opacity="0.4471"/></g></mask><clipPath id="9cac4dfc97"><path d="M 27 10 L 984 10 L 984 783 L 27 783 Z M 27 10 " clip-rule="nonzero"/></clipPath><clipPath id="c6d87882f8"><path d="M 5 41 L 905 41 L 905 783 L 5 783 Z M 5 41 " clip-rule="nonzero"/></clipPath><clipPath id="7761eef41a"><rect x="0" width="990" y="0" height="783"/></clipPath></defs><g mask="url(#80d1d8762f)"><g transform="matrix(1, 0, 0, 1, 1, -0.000000000000208807)"><g clip-path="url(#207065af43)"><g clip-path="url(#89d920b6df)"><path fill="#d9d9d9" d="M 793.652344 1174.207031 C 787.851562 1174.207031 782.207031 1174.050781 776.710938 1173.746094 C 598.003906 1165.046875 435.773438 1026.324219 399.453125 851.125 C 397.011719 839.371094 394.875 827.164062 392.738281 814.800781 C 383.429688 760.011719 373.660156 703.394531 330.472656 675.160156 C 280.566406 642.347656 212.195312 666.765625 163.664062 692.863281 C 156.796875 696.527344 149.777344 700.496094 142.757812 704.308594 C 94.074219 731.320312 43.558594 759.25 -12.144531 753.605469 C -97.609375 744.90625 -151.328125 660.355469 -165.214844 585.578125 C -189.785156 452.191406 -116.835938 305.835938 4.644531 245.25 C 75.304688 209.996094 160.460938 204.347656 244.398438 229.683594 C 270.191406 237.464844 294.914062 249.523438 318.875 261.121094 C 346.953125 274.855469 375.949219 288.898438 405.710938 295.460938 C 485.679688 313.164062 547.792969 237.464844 607.769531 164.058594 C 637.375 127.890625 665.152344 93.855469 694.453125 72.339844 C 758.246094 25.179688 827.839844 4.425781 890.714844 13.886719 C 966.257812 25.332031 1027.152344 85.160156 1032.339844 153.070312 C 1038.140625 229.53125 979.6875 292.863281 932.835938 343.683594 C 887.050781 393.285156 836.535156 458.753906 851.644531 526.058594 C 858.359375 555.664062 877.285156 581.761719 895.75 606.789062 C 899.71875 612.132812 903.535156 617.472656 907.347656 622.8125 C 969.464844 710.871094 1005.632812 818.769531 1008.988281 926.363281 C 1010.972656 988.628906 1000.75 1073.9375 940.773438 1126.4375 C 897.125 1164.894531 839.4375 1174.207031 793.652344 1174.207031 Z M 274.15625 644.027344 C 296.898438 644.027344 319.027344 649.214844 339.019531 662.339844 C 387.703125 694.238281 398.078125 754.214844 408 812.207031 C 410.136719 824.261719 412.121094 836.320312 414.5625 847.917969 C 449.511719 1016.554688 605.632812 1150.09375 777.628906 1158.332031 C 822.496094 1160.316406 885.527344 1154.671875 931.003906 1114.992188 C 986.554688 1066.613281 996.019531 986.035156 994.035156 926.972656 C 990.675781 822.125 955.574219 717.28125 895.140625 631.664062 C 891.476562 626.324219 887.507812 621.136719 883.695312 615.792969 C 864.464844 589.390625 844.472656 562.074219 837.148438 529.261719 C 820.511719 455.09375 873.773438 385.5 922 333.15625 C 966.867188 284.472656 1022.726562 223.882812 1017.535156 154.140625 C 1012.957031 94.164062 956.492188 39.070312 888.882812 28.84375 C 830.128906 19.992188 764.351562 39.679688 703.917969 84.394531 C 676.292969 104.84375 648.976562 138.269531 619.980469 173.519531 C 560 246.777344 492.089844 329.949219 402.808594 310.109375 C 371.21875 303.089844 341.460938 288.589844 312.617188 274.550781 C 289.265625 263.105469 265 251.355469 240.429688 244.027344 C 160.15625 219.914062 78.964844 225.105469 11.816406 258.679688 C -103.710938 316.519531 -173.304688 455.703125 -149.800781 582.675781 C -136.980469 652.117188 -87.839844 730.40625 -10.3125 738.34375 C 40.660156 743.378906 88.886719 716.824219 135.585938 690.878906 C 142.605469 686.910156 149.625 683.097656 156.644531 679.28125 C 190.21875 661.273438 232.953125 644.027344 274.15625 644.027344 Z M 274.15625 644.027344 " fill-opacity="1" fill-rule="nonzero"/></g><g clip-path="url(#b7b09fa8ce)"><path fill="#ffffff" d="M 579.535156 1236.929688 C 508.875 1236.929688 438.0625 1217.089844 377.933594 1178.476562 C 315.820312 1138.644531 272.019531 1087.980469 247.449219 1027.695312 C 223.03125 967.871094 225.015625 914.457031 227.304688 852.800781 C 229.289062 797.097656 237.226562 765.050781 243.636719 739.410156 C 250.351562 712.398438 255.691406 691.183594 252.335938 652.878906 C 247.753906 598.242188 230.664062 502.25 168.398438 472.796875 C 133.601562 456.3125 105.214844 464.707031 69.199219 475.238281 C 39.742188 483.9375 6.320312 493.703125 -38.089844 492.328125 C -117.90625 489.734375 -189.175781 418.617188 -196.804688 333.765625 C -203.828125 257.152344 -160.332031 175.199219 -88.757812 130.027344 C -25.269531 89.890625 56.988281 76.460938 142.605469 92.332031 C 195.5625 102.097656 241.804688 126.972656 286.519531 151.085938 C 370.761719 196.414062 443.40625 235.480469 537.414062 165.28125 C 550.996094 155.054688 564.429688 143.914062 577.550781 133.078125 C 614.179688 102.554688 652.027344 71.117188 698.878906 57.535156 C 754.125 41.511719 816.085938 54.332031 860.648438 90.652344 C 905.214844 126.972656 929.9375 185.273438 925.359375 242.503906 C 921.238281 294.085938 895.140625 340.480469 869.808594 385.195312 C 840.960938 436.320312 813.796875 484.546875 817.15625 539.183594 C 819.75 581.457031 841.117188 620.523438 861.871094 658.375 C 867.058594 667.835938 872.097656 677.144531 876.980469 686.453125 C 929.785156 788.703125 946.570312 896.601562 924.136719 990.304688 C 891.019531 1128.269531 758.703125 1192.976562 719.023438 1209.457031 C 674.917969 1227.925781 627.304688 1236.929688 579.535156 1236.929688 Z M 128.257812 448.226562 C 143.0625 448.226562 158.476562 451.277344 174.960938 459.058594 C 244.09375 491.871094 262.710938 593.816406 267.59375 651.65625 C 271.105469 692.558594 265.152344 716.0625 258.4375 743.226562 C 251.875 769.476562 244.550781 799.234375 242.566406 853.414062 C 240.429688 913.390625 238.445312 965.125 261.644531 1021.898438 C 284.992188 1079.128906 326.808594 1127.351562 386.175781 1165.507812 C 482.933594 1227.621094 608.226562 1238.914062 712.921875 1195.417969 C 740.238281 1184.125 877.132812 1121.097656 909.027344 986.949219 C 930.546875 896.753906 914.21875 792.519531 863.089844 693.625 C 858.359375 684.316406 853.171875 675.007812 848.136719 665.851562 C 826.617188 626.476562 804.335938 585.882812 801.589844 540.25 C 798.078125 481.1875 827.683594 428.691406 856.222656 377.871094 C 880.640625 334.527344 905.976562 289.507812 909.792969 241.433594 C 914.0625 189.085938 891.324219 135.824219 850.730469 102.554688 C 809.980469 69.285156 753.363281 57.6875 702.847656 72.339844 C 659.199219 85.003906 622.574219 115.527344 587.167969 144.984375 C 573.890625 155.96875 560.308594 167.265625 546.417969 177.640625 C 444.625 253.644531 364.199219 210.453125 279.042969 164.667969 C 235.242188 141.167969 190.066406 116.902344 139.554688 107.441406 C 58.820312 92.484375 -21.453125 105.457031 -80.820312 143 C -147.664062 185.121094 -188.261719 261.273438 -181.699219 332.390625 C -174.832031 408.546875 -108.902344 474.78125 -37.632812 477.070312 C 4.335938 478.441406 36.539062 468.828125 64.925781 460.585938 C 86.902344 454.175781 107.199219 448.226562 128.257812 448.226562 Z M 128.257812 448.226562 " fill-opacity="1" fill-rule="nonzero"/></g></g></g></g><g mask="url(#3efda470c1)"><g transform="matrix(1, 0, 0, 1, 4429, 120)"><g clip-path="url(#3d89e7060f)"><g clip-path="url(#b93929381e)"><path fill="#d9d9d9" d="M 793.386719 933.632812 C 788.777344 933.632812 784.289062 933.511719 779.921875 933.265625 C 637.882812 926.351562 508.941406 816.09375 480.074219 676.84375 C 478.132812 667.503906 476.433594 657.796875 474.734375 647.972656 C 467.335938 604.425781 459.574219 559.425781 425.246094 536.984375 C 385.582031 510.90625 331.242188 530.3125 292.667969 551.054688 C 287.207031 553.96875 281.628906 557.121094 276.050781 560.152344 C 237.355469 581.625 197.207031 603.820312 152.929688 599.332031 C 85.003906 592.417969 42.308594 525.21875 31.269531 465.785156 C 11.742188 359.769531 69.722656 243.441406 166.273438 195.289062 C 222.4375 167.269531 290.121094 162.78125 356.835938 182.914062 C 377.332031 189.101562 396.984375 198.683594 416.027344 207.902344 C 438.347656 218.820312 461.394531 229.980469 485.046875 235.195312 C 548.605469 249.265625 597.976562 189.101562 645.644531 130.757812 C 669.175781 102.007812 691.253906 74.960938 714.542969 57.855469 C 765.246094 20.375 820.558594 3.878906 870.53125 11.398438 C 930.574219 20.496094 978.972656 68.046875 983.097656 122.023438 C 987.707031 182.792969 941.25 233.132812 904.011719 273.523438 C 867.621094 312.945312 827.472656 364.984375 839.480469 418.476562 C 844.816406 442.007812 859.859375 462.75 874.535156 482.644531 C 877.691406 486.890625 880.722656 491.132812 883.753906 495.378906 C 933.121094 565.371094 961.871094 651.128906 964.539062 736.644531 C 966.117188 786.132812 957.988281 853.9375 910.320312 895.664062 C 875.628906 926.230469 829.777344 933.632812 793.386719 933.632812 Z M 380.488281 512.242188 C 398.5625 512.242188 416.148438 516.363281 432.039062 526.796875 C 470.734375 552.148438 478.980469 599.816406 486.867188 645.910156 C 488.5625 655.492188 490.140625 665.078125 492.082031 674.296875 C 519.859375 808.328125 643.949219 914.464844 780.652344 921.015625 C 816.3125 922.59375 866.410156 918.105469 902.554688 886.566406 C 946.707031 848.117188 954.230469 784.070312 952.652344 737.128906 C 949.984375 653.796875 922.085938 570.464844 874.050781 502.414062 C 871.140625 498.167969 867.984375 494.046875 864.953125 489.800781 C 849.667969 468.816406 833.78125 447.101562 827.957031 421.023438 C 814.734375 362.074219 857.070312 306.761719 895.398438 265.15625 C 931.0625 226.460938 975.457031 178.304688 971.332031 122.871094 C 967.691406 75.203125 922.8125 31.414062 869.078125 23.285156 C 822.378906 16.25 770.097656 31.898438 722.0625 67.4375 C 700.109375 83.691406 678.394531 110.257812 655.347656 138.277344 C 607.679688 196.5 553.703125 262.609375 482.742188 246.839844 C 457.632812 241.261719 433.980469 229.738281 411.054688 218.578125 C 392.496094 209.480469 373.210938 200.140625 353.679688 194.316406 C 289.878906 175.152344 225.347656 179.277344 171.976562 205.960938 C 80.152344 251.933594 24.839844 362.558594 43.519531 463.480469 C 53.710938 518.667969 92.769531 580.894531 154.386719 587.203125 C 194.902344 591.207031 233.230469 570.101562 270.347656 549.480469 C 275.929688 546.324219 281.507812 543.292969 287.085938 540.261719 C 313.773438 525.945312 347.738281 512.242188 380.488281 512.242188 Z M 380.488281 512.242188 " fill-opacity="1" fill-rule="nonzero"/></g><g clip-path="url(#ab496132f3)"><path fill="#ffffff" d="M 623.207031 983.484375 C 567.042969 983.484375 510.761719 967.714844 462.96875 937.027344 C 413.601562 905.367188 378.789062 865.097656 359.261719 817.183594 C 339.851562 769.636719 341.429688 727.179688 343.25 678.175781 C 344.824219 633.902344 351.132812 608.429688 356.226562 588.050781 C 361.566406 566.582031 365.808594 549.722656 363.140625 519.277344 C 359.503906 475.851562 345.917969 399.554688 296.425781 376.144531 C 268.773438 363.042969 246.210938 369.714844 217.582031 378.085938 C 194.171875 385 167.609375 392.761719 132.3125 391.667969 C 68.871094 389.609375 12.226562 333.082031 6.160156 265.640625 C 0.582031 204.75 35.152344 139.613281 92.039062 103.707031 C 142.5 71.804688 207.878906 61.132812 275.929688 73.746094 C 318.019531 81.511719 354.773438 101.28125 390.3125 120.445312 C 457.269531 156.472656 515.007812 187.523438 589.726562 131.726562 C 600.523438 123.601562 611.195312 114.746094 621.628906 106.132812 C 650.742188 81.875 680.824219 56.886719 718.0625 46.089844 C 761.972656 33.355469 811.21875 43.542969 846.636719 72.414062 C 882.054688 101.28125 901.707031 147.617188 898.066406 193.105469 C 894.792969 234.101562 874.050781 270.976562 853.914062 306.519531 C 830.988281 347.152344 809.398438 385.484375 812.066406 428.910156 C 814.128906 462.507812 831.109375 493.5625 847.609375 523.644531 C 851.730469 531.164062 855.734375 538.5625 859.617188 545.960938 C 901.585938 627.230469 914.929688 712.988281 897.097656 787.464844 C 870.777344 897.121094 765.609375 948.550781 734.074219 961.652344 C 699.015625 976.328125 661.171875 983.484375 623.207031 983.484375 Z M 264.527344 356.613281 C 276.292969 356.613281 288.542969 359.039062 301.644531 365.226562 C 356.589844 391.304688 371.390625 472.332031 375.273438 518.304688 C 378.0625 550.8125 373.332031 569.492188 367.992188 591.085938 C 362.777344 611.949219 356.957031 635.601562 355.378906 678.660156 C 353.679688 726.332031 352.105469 767.453125 370.539062 812.574219 C 389.097656 858.0625 422.335938 896.390625 469.519531 926.71875 C 546.421875 976.085938 646.007812 985.0625 729.21875 950.492188 C 750.933594 941.515625 859.738281 891.417969 885.089844 784.796875 C 902.191406 713.109375 889.214844 630.265625 848.578125 551.664062 C 844.816406 544.261719 840.695312 536.863281 836.691406 529.585938 C 819.585938 498.292969 801.878906 466.027344 799.695312 429.757812 C 796.90625 382.816406 820.4375 341.089844 843.121094 300.695312 C 862.527344 266.246094 882.664062 230.464844 885.695312 192.253906 C 889.089844 150.648438 871.019531 108.316406 838.753906 81.875 C 806.367188 55.429688 761.363281 46.210938 721.214844 57.855469 C 686.523438 67.925781 657.410156 92.183594 629.269531 115.59375 C 618.71875 124.328125 607.921875 133.304688 596.882812 141.550781 C 515.976562 201.960938 452.054688 167.632812 384.367188 131.242188 C 349.554688 112.5625 313.652344 93.277344 273.503906 85.753906 C 209.335938 73.867188 145.53125 84.179688 98.347656 114.019531 C 45.21875 147.496094 12.953125 208.023438 18.167969 264.550781 C 23.628906 325.078125 76.027344 377.71875 132.675781 379.539062 C 166.03125 380.632812 191.625 372.988281 214.1875 366.441406 C 231.652344 361.34375 247.785156 356.613281 264.527344 356.613281 Z M 264.527344 356.613281 " fill-opacity="1" fill-rule="nonzero"/></g></g></g></g><g mask="url(#ccdf7393d9)"><g transform="matrix(1, 0, 0, 1, 1456, 1007)"><g clip-path="url(#c3c3955810)"><path fill="#d9d9d9" d="M 792.675781 934.015625 C 788.066406 934.015625 783.578125 933.894531 779.210938 933.652344 C 637.171875 926.738281 508.230469 816.480469 479.359375 677.230469 C 477.421875 667.886719 475.722656 658.183594 474.023438 648.359375 C 466.625 604.8125 458.863281 559.8125 424.535156 537.371094 C 384.871094 511.292969 330.527344 530.699219 291.957031 551.441406 C 286.496094 554.351562 280.917969 557.507812 275.335938 560.539062 C 236.644531 582.007812 196.492188 604.207031 152.21875 599.71875 C 84.292969 592.804688 41.59375 525.605469 30.558594 466.167969 C 11.027344 360.15625 69.007812 243.828125 165.5625 195.675781 C 221.722656 167.652344 289.40625 163.164062 356.121094 183.300781 C 376.621094 189.488281 396.273438 199.070312 415.316406 208.289062 C 437.632812 219.207031 460.679688 230.363281 484.335938 235.582031 C 547.894531 249.652344 597.261719 189.488281 644.933594 131.144531 C 668.464844 102.394531 690.542969 75.347656 713.832031 58.242188 C 764.535156 20.761719 819.847656 4.265625 869.820312 11.785156 C 929.863281 20.882812 978.261719 68.433594 982.386719 122.410156 C 986.996094 183.179688 940.539062 233.519531 903.300781 273.910156 C 866.910156 313.332031 826.761719 365.371094 838.769531 418.863281 C 844.105469 442.394531 859.148438 463.136719 873.824219 483.03125 C 876.976562 487.273438 880.011719 491.519531 883.042969 495.765625 C 932.410156 565.753906 961.160156 651.511719 963.828125 737.027344 C 965.402344 786.519531 957.277344 854.324219 909.605469 896.050781 C 874.914062 926.617188 829.066406 934.015625 792.675781 934.015625 Z M 379.773438 512.625 C 397.847656 512.625 415.4375 516.75 431.328125 527.183594 C 470.019531 552.535156 478.269531 600.203125 486.152344 646.296875 C 487.851562 655.878906 489.429688 665.460938 491.371094 674.679688 C 519.148438 808.714844 643.234375 914.851562 779.9375 921.402344 C 815.601562 922.980469 865.695312 918.492188 901.84375 886.953125 C 945.996094 848.5 953.515625 784.457031 951.941406 737.515625 C 949.269531 654.183594 921.371094 570.851562 873.339844 502.800781 C 870.425781 498.554688 867.273438 494.433594 864.242188 490.1875 C 848.957031 469.203125 833.066406 447.488281 827.246094 421.410156 C 814.023438 362.460938 856.355469 307.148438 894.6875 265.542969 C 930.347656 226.847656 974.742188 178.691406 970.621094 123.257812 C 966.980469 75.589844 922.101562 31.800781 868.363281 23.671875 C 821.664062 16.636719 769.386719 32.285156 721.351562 67.824219 C 699.394531 84.078125 677.683594 110.644531 654.636719 138.664062 C 606.96875 196.886719 552.988281 262.996094 482.03125 247.226562 C 456.921875 241.644531 433.269531 230.121094 410.34375 218.964844 C 391.785156 209.867188 372.496094 200.527344 352.96875 194.703125 C 289.164062 175.539062 224.632812 179.664062 171.261719 206.347656 C 79.441406 252.320312 24.128906 362.945312 42.808594 463.863281 C 52.996094 519.054688 92.054688 581.28125 153.675781 587.589844 C 194.1875 591.59375 232.519531 570.484375 269.636719 549.867188 C 275.214844 546.710938 280.796875 543.679688 286.375 540.648438 C 313.0625 526.332031 347.023438 512.625 379.773438 512.625 Z M 379.773438 512.625 " fill-opacity="1" fill-rule="nonzero"/><path fill="#ffffff" d="M 622.492188 983.871094 C 566.332031 983.871094 510.050781 968.101562 462.257812 937.414062 C 412.890625 905.753906 378.078125 865.484375 358.546875 817.570312 C 339.140625 770.023438 340.71875 727.566406 342.535156 678.5625 C 344.113281 634.289062 350.421875 608.816406 355.515625 588.4375 C 360.851562 566.96875 365.097656 550.109375 362.429688 519.660156 C 358.789062 476.238281 345.207031 399.941406 295.714844 376.53125 C 268.058594 363.429688 245.496094 370.101562 216.871094 378.46875 C 193.460938 385.382812 166.894531 393.148438 131.597656 392.054688 C 68.160156 389.992188 11.511719 333.46875 5.449219 266.027344 C -0.132812 205.136719 34.4375 139.996094 91.328125 104.09375 C 141.789062 72.191406 207.167969 61.519531 275.214844 74.132812 C 317.304688 81.894531 354.058594 101.667969 389.601562 120.832031 C 456.558594 156.859375 514.296875 187.910156 589.015625 132.113281 C 599.808594 123.988281 610.484375 115.132812 620.917969 106.519531 C 650.027344 82.261719 680.109375 57.273438 717.347656 46.476562 C 761.257812 33.742188 810.503906 43.929688 845.925781 72.796875 C 881.34375 101.667969 900.996094 148.003906 897.355469 193.492188 C 894.082031 234.488281 873.339844 271.363281 853.203125 306.90625 C 830.277344 347.539062 808.6875 385.871094 811.355469 429.292969 C 813.417969 462.894531 830.398438 493.945312 846.894531 524.027344 C 851.019531 531.550781 855.023438 538.949219 858.902344 546.347656 C 900.875 627.617188 914.214844 713.375 896.386719 787.851562 C 870.0625 897.507812 764.898438 948.9375 733.359375 962.039062 C 698.304688 976.714844 660.460938 983.871094 622.492188 983.871094 Z M 263.8125 357 C 275.578125 357 287.832031 359.425781 300.929688 365.613281 C 355.878906 391.691406 370.679688 472.71875 374.558594 518.691406 C 377.347656 551.199219 372.617188 569.878906 367.28125 591.46875 C 362.066406 612.332031 356.242188 635.988281 354.667969 679.046875 C 352.96875 726.71875 351.390625 767.839844 369.828125 812.960938 C 388.386719 858.449219 421.625 896.777344 468.808594 927.101562 C 545.710938 976.472656 645.296875 985.449219 728.507812 950.878906 C 750.21875 941.902344 859.023438 891.804688 884.375 785.183594 C 901.480469 713.496094 888.5 630.648438 847.867188 552.046875 C 844.105469 544.648438 839.980469 537.25 835.976562 529.972656 C 818.875 498.675781 801.164062 466.410156 798.980469 430.144531 C 796.191406 383.199219 819.722656 341.472656 842.40625 301.082031 C 861.816406 266.632812 881.949219 230.851562 884.984375 192.640625 C 888.378906 151.035156 870.304688 108.703125 838.039062 82.261719 C 805.652344 55.816406 760.652344 46.597656 720.503906 58.242188 C 685.8125 68.308594 656.699219 92.570312 628.558594 115.980469 C 618.003906 124.714844 607.210938 133.691406 596.171875 141.9375 C 515.265625 202.34375 451.339844 168.019531 383.65625 131.628906 C 348.84375 112.949219 312.941406 93.660156 272.789062 86.140625 C 208.621094 74.253906 144.820312 84.566406 97.636719 114.402344 C 44.507812 147.882812 12.242188 208.410156 17.457031 264.933594 C 22.914062 325.464844 75.316406 378.105469 131.960938 379.925781 C 165.320312 381.019531 190.914062 373.375 213.476562 366.824219 C 230.941406 361.730469 247.074219 357 263.8125 357 Z M 263.8125 357 " fill-opacity="1" fill-rule="nonzero"/></g></g></g><g mask="url(#cf0d7ce53a)"><g transform="matrix(1, 0, 0, 1, 2942, 307)"><g clip-path="url(#8654515859)"><path fill="#d9d9d9" d="M 793.53125 934.101562 C 788.921875 934.101562 784.433594 933.980469 780.066406 933.738281 C 638.027344 926.824219 509.085938 816.5625 480.21875 677.3125 C 478.277344 667.972656 476.578125 658.269531 474.878906 648.445312 C 467.480469 604.898438 459.71875 559.898438 425.390625 537.457031 C 385.726562 511.378906 331.382812 530.785156 292.8125 551.527344 C 287.351562 554.4375 281.773438 557.59375 276.195312 560.625 C 237.5 582.09375 197.347656 604.292969 153.074219 599.804688 C 85.148438 592.890625 42.453125 525.691406 31.414062 466.253906 C 11.882812 360.238281 69.863281 243.914062 166.417969 195.757812 C 222.578125 167.738281 290.265625 163.25 356.976562 183.386719 C 377.476562 189.574219 397.128906 199.15625 416.171875 208.375 C 438.492188 219.289062 461.539062 230.449219 485.191406 235.664062 C 548.75 249.738281 598.121094 189.574219 645.789062 131.226562 C 669.320312 102.480469 691.398438 75.429688 714.6875 58.328125 C 765.390625 20.847656 820.703125 4.351562 870.675781 11.871094 C 930.71875 20.96875 979.117188 68.515625 983.242188 122.496094 C 987.851562 183.265625 941.394531 233.605469 904.15625 273.996094 C 867.765625 313.417969 827.617188 365.457031 839.625 418.949219 C 844.960938 442.480469 860.003906 463.222656 874.679688 483.113281 C 877.832031 487.359375 880.867188 491.605469 883.898438 495.851562 C 933.265625 565.839844 962.015625 651.597656 964.683594 737.113281 C 966.261719 786.601562 958.132812 854.410156 910.460938 896.136719 C 875.769531 926.703125 829.921875 934.101562 793.53125 934.101562 Z M 380.632812 512.710938 C 398.703125 512.710938 416.292969 516.835938 432.183594 527.265625 C 470.878906 552.617188 479.125 600.289062 487.011719 646.382812 C 488.707031 655.964844 490.285156 665.546875 492.226562 674.765625 C 520.003906 808.800781 644.089844 914.9375 780.792969 921.488281 C 816.457031 923.0625 866.554688 918.574219 902.699219 887.039062 C 946.851562 848.585938 954.371094 784.542969 952.796875 737.597656 C 950.128906 654.265625 922.230469 570.933594 874.195312 502.886719 C 871.285156 498.640625 868.128906 494.515625 865.097656 490.269531 C 849.8125 469.285156 833.921875 447.574219 828.101562 421.496094 C 814.878906 362.542969 857.210938 307.230469 895.542969 265.625 C 931.203125 226.933594 975.601562 178.777344 971.476562 123.34375 C 967.835938 75.671875 922.957031 31.882812 869.222656 23.757812 C 822.519531 16.722656 770.242188 32.371094 722.207031 67.910156 C 700.253906 84.164062 678.539062 110.730469 655.492188 138.75 C 607.824219 196.972656 553.84375 263.078125 482.886719 247.3125 C 457.777344 241.730469 434.125 230.207031 411.199219 219.046875 C 392.640625 209.949219 373.351562 200.609375 353.824219 194.789062 C 290.019531 175.625 225.492188 179.746094 172.121094 206.433594 C 80.296875 252.40625 24.984375 363.027344 43.664062 463.949219 C 53.851562 519.140625 92.910156 581.367188 154.53125 587.675781 C 195.042969 591.675781 233.375 570.570312 270.492188 549.949219 C 276.070312 546.796875 281.652344 543.765625 287.230469 540.730469 C 313.917969 526.417969 347.878906 512.710938 380.632812 512.710938 Z M 380.632812 512.710938 " fill-opacity="1" fill-rule="nonzero"/><path fill="#ffffff" d="M 623.347656 983.957031 C 567.1875 983.957031 510.90625 968.1875 463.113281 937.5 C 413.746094 905.839844 378.933594 865.570312 359.402344 817.65625 C 339.996094 770.105469 341.574219 727.652344 343.394531 678.648438 C 344.96875 634.375 351.277344 608.902344 356.371094 588.523438 C 361.707031 567.054688 365.953125 550.191406 363.285156 519.746094 C 359.648438 476.320312 346.0625 400.023438 296.570312 376.613281 C 268.914062 363.515625 246.355469 370.1875 217.726562 378.554688 C 194.316406 385.46875 167.753906 393.234375 132.453125 392.140625 C 69.015625 390.078125 12.371094 333.554688 6.304688 266.113281 C 0.726562 205.21875 35.292969 140.082031 92.183594 104.179688 C 142.644531 72.277344 208.023438 61.601562 276.070312 74.21875 C 318.164062 81.980469 354.917969 101.753906 390.457031 120.917969 C 457.414062 156.941406 515.152344 187.996094 589.871094 132.199219 C 600.667969 124.070312 611.339844 115.214844 621.773438 106.605469 C 650.882812 82.34375 680.964844 57.355469 718.203125 46.5625 C 762.113281 33.824219 811.363281 44.015625 846.78125 72.882812 C 882.199219 101.753906 901.851562 148.089844 898.210938 193.574219 C 894.9375 234.574219 874.195312 271.449219 854.058594 306.988281 C 831.132812 347.625 809.542969 385.953125 812.210938 429.378906 C 814.273438 462.980469 831.253906 494.03125 847.75 524.113281 C 851.875 531.632812 855.878906 539.035156 859.761719 546.433594 C 901.730469 627.703125 915.070312 713.460938 897.242188 787.9375 C 870.917969 897.589844 765.753906 949.023438 734.214844 962.121094 C 699.160156 976.800781 661.316406 983.957031 623.347656 983.957031 Z M 264.671875 357.085938 C 276.4375 357.085938 288.6875 359.511719 301.789062 365.699219 C 356.734375 391.777344 371.535156 472.804688 375.414062 518.777344 C 378.207031 551.285156 373.476562 569.964844 368.136719 591.554688 C 362.921875 612.417969 357.097656 636.070312 355.523438 679.132812 C 353.824219 726.804688 352.246094 767.921875 370.683594 813.046875 C 389.242188 858.535156 422.480469 896.863281 469.664062 927.1875 C 546.566406 976.554688 646.152344 985.53125 729.363281 950.960938 C 751.078125 941.988281 859.882812 891.890625 885.234375 785.269531 C 902.335938 713.582031 889.355469 630.734375 848.722656 552.132812 C 844.960938 544.734375 840.835938 537.335938 836.835938 530.058594 C 819.730469 498.761719 802.023438 466.496094 799.839844 430.230469 C 797.046875 383.285156 820.582031 341.558594 843.261719 301.167969 C 862.671875 266.71875 882.808594 230.933594 885.839844 192.726562 C 889.234375 151.121094 871.160156 108.789062 838.898438 82.34375 C 806.511719 55.902344 761.507812 46.683594 721.359375 58.328125 C 686.667969 68.394531 657.554688 92.65625 629.414062 116.066406 C 618.859375 124.800781 608.066406 133.773438 597.027344 142.023438 C 516.121094 202.429688 452.195312 168.101562 384.511719 131.714844 C 349.699219 113.03125 313.796875 93.746094 273.644531 86.226562 C 209.480469 74.339844 145.675781 84.648438 98.492188 114.488281 C 45.363281 147.96875 13.097656 208.496094 18.3125 265.019531 C 23.769531 325.546875 76.171875 378.191406 132.820312 380.011719 C 166.175781 381.101562 191.769531 373.460938 214.332031 366.910156 C 231.796875 361.816406 247.929688 357.085938 264.671875 357.085938 Z M 264.671875 357.085938 " fill-opacity="1" fill-rule="nonzero"/></g></g></g><g mask="url(#210fd7b7b4)"><g transform="matrix(1, 0, 0, 1, 76, 1742)"><g clip-path="url(#b49c30e068)"><g clip-path="url(#0656f6e2b9)"><path fill="#d9d9d9" d="M 793.152344 933.71875 C 788.542969 933.71875 784.054688 933.597656 779.6875 933.355469 C 637.648438 926.441406 508.707031 816.183594 479.839844 676.929688 C 477.898438 667.589844 476.199219 657.886719 474.503906 648.0625 C 467.101562 604.515625 459.339844 559.515625 425.011719 537.074219 C 385.347656 510.996094 331.007812 530.402344 292.433594 551.144531 C 286.976562 554.054688 281.394531 557.210938 275.816406 560.242188 C 237.121094 581.710938 196.972656 603.910156 152.699219 599.421875 C 84.769531 592.507812 42.074219 525.308594 31.035156 465.871094 C 11.507812 359.859375 69.488281 243.53125 166.039062 195.375 C 222.203125 167.355469 289.886719 162.867188 356.601562 183.003906 C 377.097656 189.191406 396.75 198.773438 415.792969 207.992188 C 438.113281 218.910156 461.160156 230.066406 484.8125 235.285156 C 548.371094 249.355469 597.742188 189.191406 645.410156 130.847656 C 668.945312 102.097656 691.019531 75.050781 714.308594 57.945312 C 765.011719 20.464844 820.324219 3.96875 870.296875 11.488281 C 930.339844 20.585938 978.738281 68.136719 982.863281 122.113281 C 987.472656 182.882812 941.015625 233.222656 903.777344 273.613281 C 867.386719 313.035156 827.238281 365.074219 839.246094 418.566406 C 844.582031 442.097656 859.625 462.839844 874.300781 482.734375 C 877.457031 486.976562 880.488281 491.222656 883.519531 495.46875 C 932.890625 565.457031 961.636719 651.214844 964.304688 736.730469 C 965.882812 786.222656 957.753906 854.027344 910.085938 895.753906 C 875.394531 926.320312 829.542969 933.71875 793.152344 933.71875 Z M 380.253906 512.328125 C 398.328125 512.328125 415.914062 516.453125 431.804688 526.886719 C 470.5 552.238281 478.746094 599.90625 486.632812 646 C 488.332031 655.582031 489.90625 665.164062 491.847656 674.382812 C 519.625 808.417969 643.714844 914.554688 780.417969 921.105469 C 816.078125 922.683594 866.175781 918.195312 902.320312 886.65625 C 946.472656 848.203125 953.996094 784.160156 952.417969 737.214844 C 949.75 653.882812 921.851562 570.554688 873.816406 502.503906 C 870.90625 498.257812 867.75 494.136719 864.71875 489.890625 C 849.433594 468.90625 833.546875 447.191406 827.722656 421.113281 C 814.5 362.164062 856.835938 306.851562 895.164062 265.246094 C 930.828125 226.550781 975.222656 178.394531 971.097656 122.960938 C 967.457031 75.292969 922.578125 31.503906 868.84375 23.375 C 822.144531 16.339844 769.863281 31.988281 721.828125 67.527344 C 699.875 83.78125 678.160156 110.347656 655.117188 138.367188 C 607.445312 196.589844 553.46875 262.699219 482.507812 246.929688 C 457.398438 241.347656 433.746094 229.824219 410.820312 218.667969 C 392.261719 209.570312 372.976562 200.230469 353.445312 194.40625 C 289.644531 175.242188 225.113281 179.367188 171.742188 206.050781 C 79.917969 252.023438 24.605469 362.648438 43.285156 463.566406 C 53.476562 518.757812 92.535156 580.984375 154.152344 587.292969 C 194.667969 591.292969 232.996094 570.1875 270.113281 549.566406 C 275.695312 546.414062 281.273438 543.382812 286.851562 540.347656 C 313.539062 526.035156 347.503906 512.328125 380.253906 512.328125 Z M 380.253906 512.328125 " fill-opacity="1" fill-rule="nonzero"/></g><g clip-path="url(#6a883625e8)"><path fill="#ffffff" d="M 622.972656 983.574219 C 566.808594 983.574219 510.527344 967.804688 462.734375 937.117188 C 413.367188 905.457031 378.554688 865.1875 359.027344 817.273438 C 339.617188 769.726562 341.195312 727.269531 343.015625 678.265625 C 344.589844 633.992188 350.898438 608.519531 355.992188 588.140625 C 361.332031 566.671875 365.574219 549.8125 362.90625 519.363281 C 359.269531 475.941406 345.683594 399.644531 296.195312 376.234375 C 268.539062 363.132812 245.976562 369.804688 217.347656 378.171875 C 193.9375 385.085938 167.375 392.851562 132.078125 391.757812 C 68.636719 389.695312 11.992188 333.171875 5.925781 265.730469 C 0.347656 204.839844 34.917969 139.699219 91.804688 103.796875 C 142.265625 71.894531 207.644531 61.222656 275.695312 73.835938 C 317.785156 81.597656 354.539062 101.371094 390.078125 120.535156 C 457.035156 156.5625 514.773438 187.613281 589.492188 131.816406 C 600.289062 123.691406 610.960938 114.835938 621.394531 106.222656 C 650.507812 81.960938 680.589844 56.976562 717.828125 46.179688 C 761.738281 33.445312 810.984375 43.632812 846.402344 72.5 C 881.820312 101.371094 901.472656 147.707031 897.832031 193.195312 C 894.558594 234.191406 873.816406 271.066406 853.679688 306.609375 C 830.753906 347.242188 809.164062 385.574219 811.832031 428.996094 C 813.894531 462.597656 830.875 493.648438 847.375 523.730469 C 851.496094 531.253906 855.5 538.652344 859.382812 546.050781 C 901.351562 627.320312 914.695312 713.078125 896.863281 787.554688 C 870.542969 897.210938 765.375 948.640625 733.839844 961.738281 C 698.78125 976.417969 660.9375 983.574219 622.972656 983.574219 Z M 264.292969 356.703125 C 276.058594 356.703125 288.308594 359.128906 301.410156 365.316406 C 356.355469 391.394531 371.15625 472.421875 375.039062 518.394531 C 377.828125 550.902344 373.097656 569.582031 367.757812 591.171875 C 362.542969 612.035156 356.722656 635.691406 355.144531 678.75 C 353.445312 726.421875 351.871094 767.542969 370.308594 812.664062 C 388.867188 858.152344 422.101562 896.480469 469.285156 926.804688 C 546.1875 976.175781 645.777344 985.152344 728.984375 950.582031 C 750.699219 941.605469 859.503906 891.507812 884.855469 784.886719 C 901.957031 713.199219 888.980469 630.351562 848.34375 551.75 C 844.582031 544.351562 840.460938 536.953125 836.457031 529.675781 C 819.351562 498.378906 801.644531 466.113281 799.460938 429.847656 C 796.671875 382.902344 820.203125 341.175781 842.886719 300.785156 C 862.292969 266.335938 882.429688 230.554688 885.460938 192.34375 C 888.855469 150.738281 870.785156 108.40625 838.519531 81.960938 C 806.132812 55.519531 761.128906 46.300781 720.980469 57.945312 C 686.289062 68.011719 657.175781 92.273438 629.035156 115.683594 C 618.484375 124.417969 607.6875 133.394531 596.648438 141.640625 C 515.742188 202.046875 451.820312 167.722656 384.132812 131.332031 C 349.320312 112.652344 313.417969 93.363281 273.269531 85.84375 C 209.101562 73.957031 145.296875 84.265625 98.113281 114.105469 C 44.984375 147.585938 12.71875 208.113281 17.933594 264.636719 C 23.394531 325.167969 75.792969 377.808594 132.441406 379.628906 C 165.796875 380.722656 191.390625 373.078125 213.953125 366.527344 C 231.421875 361.433594 247.554688 356.703125 264.292969 356.703125 Z M 264.292969 356.703125 " fill-opacity="1" fill-rule="nonzero"/></g></g></g></g><g mask="url(#8f2893e45f)"><g transform="matrix(1, 0, 0, 1, 2835, 1808)"><g clip-path="url(#7761eef41a)"><g clip-path="url(#9cac4dfc97)"><path fill="#d9d9d9" d="M 793.441406 934.15625 C 788.832031 934.15625 784.34375 934.035156 779.976562 933.792969 C 637.9375 926.878906 508.996094 816.617188 480.128906 677.367188 C 478.1875 668.027344 476.488281 658.324219 474.792969 648.5 C 467.390625 604.953125 459.628906 559.949219 425.300781 537.511719 C 385.636719 511.429688 331.296875 530.839844 292.722656 551.582031 C 287.265625 554.492188 281.683594 557.644531 276.105469 560.679688 C 237.410156 582.148438 197.261719 604.347656 152.988281 599.859375 C 85.058594 592.945312 42.363281 525.746094 31.324219 466.308594 C 11.796875 360.292969 69.777344 243.96875 166.328125 195.8125 C 222.492188 167.792969 290.175781 163.304688 356.890625 183.441406 C 377.386719 189.625 397.039062 199.210938 416.082031 208.425781 C 438.402344 219.34375 461.449219 230.503906 485.101562 235.71875 C 548.660156 249.789062 598.03125 189.625 645.699219 131.28125 C 669.230469 102.535156 691.308594 75.484375 714.597656 58.382812 C 765.300781 20.902344 820.613281 4.402344 870.585938 11.925781 C 930.628906 21.023438 979.027344 68.570312 983.152344 122.546875 C 987.761719 183.320312 941.304688 233.65625 904.066406 274.050781 C 867.675781 313.472656 827.527344 365.507812 839.535156 419 C 844.871094 442.535156 859.914062 463.277344 874.589844 483.167969 C 877.746094 487.414062 880.777344 491.660156 883.808594 495.90625 C 933.179688 565.894531 961.925781 651.652344 964.59375 737.167969 C 966.171875 786.65625 958.042969 854.464844 910.375 896.191406 C 875.683594 926.757812 829.832031 934.15625 793.441406 934.15625 Z M 380.542969 512.765625 C 398.617188 512.765625 416.203125 516.890625 432.09375 527.320312 C 470.789062 552.671875 479.035156 600.34375 486.921875 646.4375 C 488.617188 656.019531 490.195312 665.601562 492.136719 674.820312 C 519.914062 808.855469 644.003906 914.992188 780.707031 921.539062 C 816.367188 923.117188 866.464844 918.628906 902.609375 887.09375 C 946.761719 848.640625 954.285156 784.59375 952.707031 737.652344 C 950.039062 654.320312 922.140625 570.988281 874.105469 502.941406 C 871.195312 498.695312 868.039062 494.570312 865.007812 490.324219 C 849.722656 469.339844 833.835938 447.628906 828.011719 421.550781 C 814.789062 362.597656 857.125 307.285156 895.453125 265.679688 C 931.117188 226.988281 975.511719 178.832031 971.386719 123.398438 C 967.746094 75.726562 922.867188 31.9375 869.132812 23.8125 C 822.433594 16.777344 770.152344 32.421875 722.117188 67.964844 C 700.164062 84.21875 678.449219 110.78125 655.402344 138.800781 C 607.734375 197.027344 553.757812 263.132812 482.796875 247.363281 C 457.6875 241.785156 434.035156 230.261719 411.109375 219.101562 C 392.550781 210.003906 373.265625 200.664062 353.734375 194.84375 C 289.933594 175.675781 225.402344 179.800781 172.03125 206.488281 C 80.207031 252.460938 24.894531 363.082031 43.574219 464.003906 C 53.765625 519.195312 92.824219 581.421875 154.441406 587.726562 C 194.957031 591.730469 233.285156 570.625 270.402344 550.003906 C 275.984375 546.851562 281.5625 543.816406 287.140625 540.785156 C 313.828125 526.472656 347.792969 512.765625 380.542969 512.765625 Z M 380.542969 512.765625 " fill-opacity="1" fill-rule="nonzero"/></g><g clip-path="url(#c6d87882f8)"><path fill="#ffffff" d="M 623.261719 984.011719 C 567.097656 984.011719 510.816406 968.242188 463.023438 937.550781 C 413.65625 905.894531 378.84375 865.621094 359.316406 817.710938 C 339.90625 770.160156 341.484375 727.707031 343.304688 678.703125 C 344.878906 634.429688 351.1875 608.957031 356.28125 588.578125 C 361.621094 567.105469 365.863281 550.246094 363.195312 519.800781 C 359.558594 476.375 345.972656 400.078125 296.480469 376.667969 C 268.828125 363.570312 246.265625 370.238281 217.636719 378.609375 C 194.226562 385.523438 167.664062 393.285156 132.367188 392.195312 C 68.925781 390.132812 12.28125 333.609375 6.214844 266.164062 C 0.636719 205.273438 35.207031 140.136719 92.09375 104.234375 C 142.554688 72.332031 207.933594 61.65625 275.984375 74.273438 C 318.074219 82.035156 354.828125 101.804688 390.367188 120.972656 C 457.324219 156.996094 515.0625 188.050781 589.78125 132.253906 C 600.578125 124.125 611.25 115.269531 621.683594 106.660156 C 650.796875 82.398438 680.878906 57.410156 718.117188 46.617188 C 762.027344 33.878906 811.273438 44.070312 846.691406 72.9375 C 882.109375 101.804688 901.761719 148.140625 898.121094 193.628906 C 894.847656 234.628906 874.105469 271.503906 853.96875 307.042969 C 831.042969 347.679688 809.453125 386.007812 812.121094 429.433594 C 814.183594 463.03125 831.164062 494.085938 847.664062 524.167969 C 851.785156 531.6875 855.789062 539.085938 859.671875 546.488281 C 901.640625 627.757812 914.984375 713.515625 897.152344 787.992188 C 870.832031 897.644531 765.664062 949.074219 734.128906 962.175781 C 699.070312 976.851562 661.226562 984.011719 623.261719 984.011719 Z M 264.582031 357.140625 C 276.347656 357.140625 288.597656 359.566406 301.699219 365.75 C 356.644531 391.832031 371.445312 472.859375 375.328125 518.832031 C 378.117188 551.339844 373.386719 570.019531 368.046875 591.609375 C 362.832031 612.472656 357.011719 636.125 355.433594 679.1875 C 353.734375 726.855469 352.160156 767.976562 370.597656 813.101562 C 389.15625 858.585938 422.390625 896.917969 469.574219 927.242188 C 546.476562 976.609375 646.0625 985.585938 729.273438 951.015625 C 750.988281 942.039062 859.792969 891.945312 885.144531 785.324219 C 902.246094 713.636719 889.269531 630.789062 848.632812 552.1875 C 844.871094 544.789062 840.75 537.390625 836.746094 530.109375 C 819.640625 498.816406 801.933594 466.550781 799.75 430.28125 C 796.960938 383.339844 820.492188 341.613281 843.175781 301.222656 C 862.582031 266.773438 882.71875 230.988281 885.75 192.78125 C 889.144531 151.175781 871.074219 108.839844 838.808594 82.398438 C 806.421875 55.957031 761.417969 46.738281 721.269531 58.382812 C 686.578125 68.449219 657.464844 92.710938 629.324219 116.121094 C 618.773438 124.851562 607.976562 133.828125 596.9375 142.078125 C 516.03125 202.484375 452.109375 168.15625 384.421875 131.765625 C 349.609375 113.085938 313.707031 93.800781 273.558594 86.28125 C 209.390625 74.394531 145.585938 84.703125 98.402344 114.542969 C 45.273438 148.019531 13.007812 208.550781 18.222656 265.074219 C 23.683594 325.601562 76.082031 378.246094 132.730469 380.066406 C 166.085938 381.15625 191.679688 373.515625 214.242188 366.964844 C 231.710938 361.871094 247.839844 357.140625 264.582031 357.140625 Z M 264.582031 357.140625 " fill-opacity="1" fill-rule="nonzero"/></g></g></g></g></svg>